<svg width="175" height="22" viewBox="0 0 175 22" fill="none" xmlns="http://www.w3.org/2000/svg">
<g clip-path="url(#clip0_1108_11612)">
<path d="M9.58154 7.98999C9.58154 8.44272 9.62677 8.80979 9.70592 9.07898C9.79639 9.34817 9.90947 9.64183 10.0678 9.95996C10.1243 10.0578 10.1469 10.1557 10.1469 10.2414C10.1469 10.3637 10.0791 10.4861 9.93209 10.6085L9.21968 11.1224C9.11791 11.1958 9.01613 11.2325 8.92567 11.2325C8.81259 11.2325 8.69951 11.1713 8.58643 11.0612C8.42812 10.8776 8.29242 10.6819 8.17934 10.4861C8.06626 10.2781 7.95318 10.0456 7.82879 9.76418C6.94676 10.8899 5.83857 11.4527 4.50423 11.4527C3.55435 11.4527 2.79671 11.1591 2.24262 10.5717C1.68852 9.98443 1.40582 9.20134 1.40582 8.22247C1.40582 7.18243 1.74506 6.33815 2.43485 5.70189C3.12464 5.06563 4.0406 4.7475 5.20532 4.7475C5.5898 4.7475 5.98558 4.78421 6.40398 4.84538C6.82237 4.90656 7.25208 5.00445 7.7044 5.11457V4.22136C7.7044 3.29144 7.52347 2.64294 7.17292 2.26363C6.81107 1.88432 6.20043 1.70078 5.32971 1.70078C4.93393 1.70078 4.52684 1.74972 4.10844 1.85984C3.69005 1.96997 3.28296 2.10456 2.88718 2.27586C2.70625 2.36151 2.57055 2.41046 2.49139 2.43493C2.41224 2.4594 2.3557 2.47164 2.31047 2.47164C2.15215 2.47164 2.073 2.34928 2.073 2.09232V1.49277C2.073 1.297 2.09561 1.15017 2.15215 1.06452C2.20869 0.978866 2.31047 0.893215 2.46878 0.807564C2.86456 0.587319 3.3395 0.403782 3.89359 0.256952C4.44769 0.0978865 5.0357 0.0244716 5.65765 0.0244716C7.0033 0.0244716 7.9871 0.354839 8.62035 1.01557C9.24229 1.67631 9.55892 2.67964 9.55892 4.02558V7.98999H9.58154ZM4.99047 9.84983C5.36364 9.84983 5.74811 9.77642 6.1552 9.62959C6.56229 9.48276 6.92415 9.21357 7.22946 8.8465C7.41039 8.61402 7.54609 8.35706 7.61394 8.06341C7.68179 7.76975 7.72702 7.41491 7.72702 6.99889V6.48498C7.39908 6.39933 7.04853 6.32592 6.68668 6.27698C6.32482 6.22803 5.97427 6.20356 5.62372 6.20356C4.86608 6.20356 4.31199 6.36263 3.93882 6.69299C3.56566 7.02336 3.38473 7.48832 3.38473 8.10011C3.38473 8.6752 3.52043 9.10345 3.80313 9.39711C4.07452 9.703 4.4703 9.84983 4.99047 9.84983ZM14.0708 11.1713C13.8673 11.1713 13.7316 11.1346 13.6411 11.0489C13.5507 10.9755 13.4715 10.8042 13.4037 10.5717L10.7463 1.11346C10.6784 0.868743 10.6445 0.709677 10.6445 0.624027C10.6445 0.428254 10.735 0.318131 10.9159 0.318131H12.0241C12.2389 0.318131 12.3859 0.354839 12.4651 0.440489C12.5556 0.513904 12.6234 0.685206 12.6912 0.917686L14.591 9.0178L16.3551 0.917686C16.4116 0.67297 16.4794 0.513904 16.5699 0.440489C16.6604 0.367075 16.8187 0.318131 17.0222 0.318131H17.9269C18.1417 0.318131 18.2887 0.354839 18.3792 0.440489C18.4697 0.513904 18.5488 0.685206 18.594 0.917686L20.3807 9.11569L22.337 0.917686C22.4049 0.67297 22.484 0.513904 22.5632 0.440489C22.6536 0.367075 22.8006 0.318131 23.0042 0.318131H24.0558C24.2368 0.318131 24.3385 0.416018 24.3385 0.624027C24.3385 0.685206 24.3272 0.746385 24.3159 0.8198C24.3046 0.893215 24.282 0.991101 24.2368 1.1257L21.5115 10.584C21.4437 10.8287 21.3645 10.9878 21.274 11.0612C21.1836 11.1346 21.0366 11.1835 20.8443 11.1835H19.8719C19.657 11.1835 19.51 11.1468 19.4195 11.0612C19.3291 10.9755 19.2499 10.8165 19.2047 10.5717L17.4519 2.67964L15.7105 10.5595C15.654 10.8042 15.5861 10.9633 15.4956 11.0489C15.4052 11.1346 15.2469 11.1713 15.0433 11.1713H14.0708ZM28.6017 11.5017C28.0136 11.5017 27.4256 11.4283 26.8602 11.2814C26.2948 11.1346 25.8538 10.9755 25.5598 10.792C25.3789 10.6819 25.2545 10.5595 25.2092 10.4494C25.164 10.3393 25.1414 10.2169 25.1414 10.1068V9.48276C25.1414 9.22581 25.2319 9.10345 25.4015 9.10345C25.4693 9.10345 25.5372 9.11569 25.605 9.14016C25.6729 9.16463 25.7746 9.21357 25.8877 9.26252C26.2722 9.44605 26.6906 9.59288 27.1316 9.69077C27.5839 9.78866 28.0249 9.8376 28.4773 9.8376C29.1897 9.8376 29.7438 9.703 30.1282 9.43382C30.5127 9.16463 30.7163 8.77308 30.7163 8.27141C30.7163 7.92881 30.6145 7.64739 30.4109 7.41491C30.2074 7.18243 29.8229 6.97442 29.2688 6.77864L27.6292 6.22803C26.8037 5.94661 26.193 5.53059 25.8199 4.97998C25.4467 4.4416 25.2545 3.84205 25.2545 3.20578C25.2545 2.69188 25.3563 2.23915 25.5598 1.84761C25.7633 1.45606 26.0347 1.11346 26.374 0.844271C26.7132 0.562848 27.0977 0.354839 27.55 0.208009C28.0023 0.0611791 28.4773 0 28.9748 0C29.2236 0 29.4837 0.0122358 29.7325 0.0489433C29.9925 0.0856507 30.23 0.134594 30.4675 0.183537C30.6936 0.244716 30.9085 0.305895 31.112 0.37931C31.3156 0.452725 31.4739 0.52614 31.587 0.599555C31.7453 0.697442 31.8584 0.795328 31.9262 0.905451C31.9941 1.00334 32.028 1.13793 32.028 1.30923V1.88432C32.028 2.14127 31.9375 2.27586 31.7679 2.27586C31.6774 2.27586 31.5304 2.22692 31.3382 2.12903C30.6936 1.8109 29.9699 1.65184 29.1671 1.65184C28.5225 1.65184 28.0136 1.76196 27.6631 1.99444C27.3125 2.22692 27.1316 2.58176 27.1316 3.08343C27.1316 3.42603 27.2447 3.71969 27.4709 3.95217C27.697 4.18465 28.1154 4.41713 28.7147 4.62514L30.3205 5.17575C31.1347 5.45718 31.7227 5.84872 32.0732 6.35039C32.4238 6.85206 32.5934 7.42714 32.5934 8.06341C32.5934 8.58955 32.4916 9.06674 32.2994 9.48276C32.0958 9.89878 31.8244 10.2659 31.4739 10.5595C31.1234 10.8654 30.705 11.0857 30.2187 11.2447C29.7098 11.416 29.1784 11.5017 28.6017 11.5017Z" fill="#0F172A"/>
<path fill-rule="evenodd" clip-rule="evenodd" d="M27.9345 15.3804C29.1445 15.2213 31.8132 14.8787 32.2881 15.5394C32.763 16.1879 31.7566 18.9165 31.3043 20.1279C31.1686 20.4949 31.4626 20.6418 31.7679 20.3603C33.7581 18.5494 34.2783 14.7686 33.8712 14.2179C33.4641 13.6796 29.97 13.2146 27.844 14.8297C27.5161 15.0867 27.5727 15.4293 27.9345 15.3804ZM16.9657 21.9999C21.6133 21.9999 27.0185 20.4215 30.7389 17.4482C31.3495 16.9588 30.818 16.2124 30.1961 16.5183C26.0234 18.4271 21.4889 19.357 17.3615 19.357C11.2438 19.357 5.32971 17.5339 0.535098 14.5238C0.116701 14.2547 -0.199924 14.7196 0.150625 15.0622C4.58338 19.3937 10.4522 21.9999 16.9657 21.9999Z" fill="#FF9900"/>
<path d="M52.072 14.696C51.2293 15.0267 50.2693 15.192 49.192 15.192C47.4213 15.192 46.0827 14.7227 45.176 13.784C44.28 12.8453 43.832 11.4587 43.832 9.624C43.832 7.736 44.296 6.28533 45.224 5.272C46.1627 4.248 47.5067 3.736 49.256 3.736C50.216 3.736 51.1013 3.88 51.912 4.168V5.768C50.856 5.544 50.0293 5.432 49.432 5.432C48.2267 5.432 47.3307 5.74667 46.744 6.376C46.1573 7.00533 45.864 7.976 45.864 9.288V9.672C45.864 10.9733 46.152 11.9387 46.728 12.568C47.3147 13.1867 48.2053 13.496 49.4 13.496C50.072 13.496 50.9627 13.3627 52.072 13.096V14.696ZM59.4679 9.464C59.4679 10.8293 59.7505 11.8693 60.3159 12.584C60.8812 13.288 61.7025 13.64 62.7799 13.64C63.8572 13.64 64.6785 13.288 65.2439 12.584C65.8092 11.8693 66.0919 10.8293 66.0919 9.464C66.0919 8.09867 65.8092 7.064 65.2439 6.36C64.6785 5.64533 63.8572 5.288 62.7799 5.288C61.7025 5.288 60.8812 5.64533 60.3159 6.36C59.7505 7.064 59.4679 8.09867 59.4679 9.464ZM57.4839 9.464C57.4839 8.29067 57.6919 7.26667 58.1079 6.392C58.5239 5.51733 59.1319 4.84533 59.9319 4.376C60.7319 3.896 61.6812 3.656 62.7799 3.656C63.8465 3.656 64.7745 3.88533 65.5639 4.344C66.3639 4.80267 66.9825 5.46933 67.4199 6.344C67.8572 7.21867 68.0759 8.25867 68.0759 9.464C68.0759 10.6373 67.8679 11.6613 67.4519 12.536C67.0359 13.4107 66.4279 14.088 65.6279 14.568C64.8279 15.0373 63.8785 15.272 62.7799 15.272C61.7132 15.272 60.7799 15.0427 59.9799 14.584C59.1905 14.1253 58.5772 13.4587 58.1399 12.584C57.7025 11.7093 57.4839 10.6693 57.4839 9.464ZM83.9099 15V6.696L81.0139 12.216H79.2539L76.4539 6.728V15H74.6939V3.912H76.8379L80.1819 10.52L83.5899 3.912H85.6699V15H83.9099ZM101.984 15V6.696L99.0876 12.216H97.3276L94.5276 6.728V15H92.7676V3.912H94.9116L98.2556 10.52L101.664 3.912H103.744V15H101.984ZM117.753 3.912H119.705V10.936C119.705 12.3227 119.321 13.3947 118.553 14.152C117.785 14.8987 116.681 15.272 115.241 15.272C113.801 15.272 112.697 14.8987 111.929 14.152C111.161 13.3947 110.777 12.3227 110.777 10.936V3.912H112.729V11.064C112.729 11.896 112.943 12.536 113.369 12.984C113.796 13.4213 114.42 13.64 115.241 13.64C116.063 13.64 116.687 13.4213 117.113 12.984C117.54 12.536 117.753 11.896 117.753 11.064V3.912ZM128.503 6.632V15H126.743V3.912H128.839L133.911 12.28V3.912H135.671V15H133.575L128.503 6.632ZM142.834 15V3.912H144.786V15H142.834ZM154.337 15V5.512H150.865V3.912H159.761V5.512H156.289V15H154.337ZM168.776 15V10.92L165.032 3.912H167.176L169.768 9.4L172.408 3.912H174.472L170.68 10.952V15H168.776Z" fill="#0F172A"/>
</g>
<defs>
<clipPath id="clip0_1108_11612">
<rect width="175" height="22" fill="white"/>
</clipPath>
</defs>
</svg>
